<?xml version="1.0" encoding="UTF-8"?>
<!DOCTYPE svg PUBLIC "-//W3C//DTD SVG 1.1//EN" "http://www.w3.org/Graphics/SVG/1.1/DTD/svg11.dtd">
<!-- Creator: CorelDRAW 2020 (64-Bit) -->
<svg xmlns="http://www.w3.org/2000/svg" xml:space="preserve" width="500px" height="500px" version="1.1" style="shape-rendering:geometricPrecision; text-rendering:geometricPrecision; image-rendering:optimizeQuality; fill-rule:evenodd; clip-rule:evenodd"
viewBox="0 0 500 500"
 xmlns:xlink="http://www.w3.org/1999/xlink"
 xmlns:xodm="http://www.corel.com/coreldraw/odm/2003">
 <defs>
  <style type="text/css">
   <![CDATA[
    .str3 {stroke:#373435;stroke-miterlimit:22.9256;stroke-opacity:0.800000}
    .str2 {stroke:#373435;stroke-width:0.3;stroke-miterlimit:22.9256;stroke-opacity:0.811765}
    .str1 {stroke:#373435;stroke-miterlimit:22.9256}
    .str4 {stroke:#1E1413;stroke-miterlimit:22.9256}
    .str0 {stroke:#373435;stroke-width:2.36;stroke-miterlimit:22.9256}
    .fil4 {fill:none}
    .fil25 {fill:none}
    .fil12 {fill:#373435}
    .fil1 {fill:#F3CBAF}
    .fil13 {fill:#DBE134}
    .fil11 {fill:#A5AE45}
    .fil10 {fill:#A5AE45}
    .fil0 {fill:#1E1613}
    .fil8 {fill:#47322F}
    .fil7 {fill:#7D6759}
    .fil2 {fill:#E6998F}
    .fil3 {fill:#F7C0B7}
    .fil9 {fill:#727376;fill-opacity:0.501961}
    .fil6 {fill:#E6998F;fill-opacity:0.501961}
    .fil19 {fill:#D6D7D9;fill-opacity:0.800000}
    .fil23 {fill:#D483A7;fill-opacity:0.800000}
    .fil16 {fill:#ED97B5;fill-opacity:0.800000}
    .fil24 {fill:#18171C;fill-opacity:0.800000}
    .fil20 {fill:#302416;fill-opacity:0.800000}
    .fil21 {fill:#4A474E;fill-opacity:0.800000}
    .fil22 {fill:#9400CD;fill-opacity:0.800000}
    .fil5 {fill:#E0816B;fill-opacity:0.800000}
    .fil15 {fill:#373435;fill-opacity:0.811765}
    .fil14 {fill:#3DFF00;fill-opacity:0.811765}
    .fil26 {fill:#1E1413}
    .fil18 {fill:url(#id10);fill-opacity:0.800000}
    .fil17 {fill:url(#id11);fill-opacity:0.800000}
   ]]>
  </style>
    <mask id="id0">
  <linearGradient id="id1" gradientUnits="userSpaceOnUse" x1="308.92" y1="430.3" x2="195.1" y2="437.29">
   <stop offset="0" style="stop-opacity:0; stop-color:white"/>
   <stop offset="0.439216" style="stop-opacity:0.501961; stop-color:white"/>
   <stop offset="1" style="stop-opacity:1; stop-color:white"/>
  </linearGradient>
     <rect style="fill:url(#id1)" x="194.95" y="391.55" width="114.13" height="84.49"/>
    </mask>
    <mask id="id2">
  <linearGradient id="id3" gradientUnits="userSpaceOnUse" x1="242.28" y1="414.82" x2="256.72" y2="71.18">
   <stop offset="0" style="stop-opacity:0; stop-color:white"/>
   <stop offset="0.768627" style="stop-opacity:0.501961; stop-color:white"/>
   <stop offset="1" style="stop-opacity:1; stop-color:white"/>
  </linearGradient>
     <rect style="fill:url(#id3)" x="92" y="71" width="315" height="344"/>
    </mask>
     <mask id="id4">
  <radialGradient id="id5" gradientUnits="userSpaceOnUse" cx="135.62" cy="185.98" r="0" fx="135.62" fy="185.98">
   <stop offset="0" style="stop-opacity:1; stop-color:white"/>
   <stop offset="0.878431" style="stop-opacity:0.501961; stop-color:white"/>
   <stop offset="1" style="stop-opacity:0; stop-color:white"/>
  </radialGradient>
      <rect style="fill:url(#id5)" x="135.62" y="185.98" width="102.41" height="118.03"/>
     </mask>
     <mask id="id6">
  <radialGradient id="id7" gradientUnits="userSpaceOnUse" cx="265.09" cy="184.73" r="0" fx="265.09" fy="184.73">
   <stop offset="0" style="stop-opacity:1; stop-color:white"/>
   <stop offset="0.878431" style="stop-opacity:0.501961; stop-color:white"/>
   <stop offset="1" style="stop-opacity:0; stop-color:white"/>
  </radialGradient>
      <rect style="fill:url(#id7)" x="265.09" y="184.73" width="98.66" height="118.04"/>
     </mask>
     <mask id="id8">
  <linearGradient id="id9" gradientUnits="userSpaceOnUse" x1="109.56" y1="275.02" x2="308.23" y2="253.95">
   <stop offset="0" style="stop-opacity:0; stop-color:white"/>
   <stop offset="0.109804" style="stop-opacity:0.501961; stop-color:white"/>
   <stop offset="1" style="stop-opacity:1; stop-color:white"/>
  </linearGradient>
      <rect style="fill:url(#id9)" x="108.2" y="196.5" width="201.39" height="135.97"/>
     </mask>
  <linearGradient id="id10" gradientUnits="userSpaceOnUse" x1="366.17" y1="228.99" x2="370.93" y2="235.4">
   <stop offset="0" style="stop-opacity:1; stop-color:#9C1AD2"/>
   <stop offset="0.788235" style="stop-opacity:1; stop-color:#CD8CE8"/>
   <stop offset="1" style="stop-opacity:1; stop-color:#FEFEFE"/>
  </linearGradient>
  <linearGradient id="id11" gradientUnits="userSpaceOnUse" x1="366.02" y1="217.82" x2="376.05" y2="216.73">
   <stop offset="0" style="stop-opacity:1; stop-color:#874D9C"/>
   <stop offset="0.729412" style="stop-opacity:1; stop-color:#C2A5CD"/>
   <stop offset="1" style="stop-opacity:1; stop-color:#FEFEFE"/>
  </linearGradient>
 </defs>
 <g id="Capa_x0020_1">
  <metadata id="CorelCorpID_0Corel-Layer"/>
  <path id="pelo" class="fil0 str0" d="M2.27 193c12.35,-20.84 77.18,-70 101.09,-70 0.17,0 13.84,-33.16 17.66,-37.92 15.75,-19.66 46.21,-33.96 70.25,-37.17 32.9,-4.39 36.77,2.49 60.73,10.09 1.86,-0.01 22.32,-5 40.27,-5 37.96,0 70.6,11.82 90.75,45.25 1.98,3.29 11.03,21.18 25.57,29.85 8.76,5.21 21.23,-0.8 30.47,6.93 16.22,13.56 27.66,35.03 40.56,48.62 3.17,3.35 22.35,14.09 26.66,16.35l-6.28 299 -499 -1 1.27 -305z"/>
  <g id="cara">
   <path class="fil1" d="M191.03 391l123.59 0c-7.1,12.01 -11.62,30.18 -11.62,50.5 0,20.68 4.69,39.12 12,51.13l0 7.37 -131 0 0 -3.63c10.11,-11.01 17,-32.79 17,-57.87 0,-18.7 -3.83,-35.57 -9.97,-47.5z"/>
   <path class="fil2" style="mask:url(#id0)" d="M256.02 454c9.56,-12.06 44.81,-18.33 49.27,-36.89 12.05,-50.1 -6.26,-11.11 -32.02,-11.11 -10.09,0 -80.02,-8.72 -78.29,-5.75 5.49,9.46 8.27,43.2 3.72,62.66 -0.73,3.16 -2.79,11.05 0.05,10.21 1.74,-0.5 2.93,2.56 6.23,2.81 9.76,0.74 34.96,-1.66 51.04,-21.93z"/>
   <ellipse id="cara_0" class="fil1" cx="249.5" cy="243" rx="157.5" ry="172"/>
   <path id="cara_1" class="fil3" style="mask:url(#id2)" d="M249.5 415c-86.98,0 -157.5,-77.01 -157.5,-172 0,-94.99 70.52,-172 157.5,-172 86.99,0 157.5,77.01 157.5,172 0,94.99 -70.51,172 -157.5,172z"/>
   <g id="boca">
    <path class="fil4 str1" d="M209.69 344.48c30.98,8.34 59.76,8.1 86.33,-0.74"/>
    <path class="fil5" d="M209.69 344.48c26.74,-4.1 55.51,-4.35 86.33,-0.74 -26.57,8.84 -55.35,9.08 -86.33,0.74z"/>
    <path class="fil5" d="M237.29 357.17c9.67,10.28 19.27,10.23 28.78,-0.15 -9.54,2.71 -19.13,2.76 -28.78,0.15z"/>
   </g>
   <g id="nariz">
    <path class="fil6" d="M243.89 301.84c-12.8,-4.45 -20.28,-2.85 -22.45,4.8 0.87,7.07 7.05,9.97 18.54,8.72 8.44,5.41 16.26,5.78 23.45,1.11 14.88,-0.16 20.61,-3.66 17.2,-10.5 -2.82,-7.25 -8.03,-9.04 -15.63,-5.36 -7.46,7.61 -14.5,8.02 -21.11,1.23z"/>
    <path class="fil7" d="M242.95 311.29c-9.42,-1.55 -14.13,-2.33 -14.13,-2.33 9.95,-4 14.66,-3.22 14.13,2.33zm19 -0.13c9.57,-1.55 14.36,-2.33 14.36,-2.33 -10.11,-4 -14.9,-3.22 -14.36,2.33z"/>
   </g>
   <g id="ojos-sombra">
    <path class="fil2" style="mask:url(#id4)" d="M186.82 185.98c28.28,0 51.21,26.42 51.21,59.01 0,32.6 -22.93,59.02 -51.21,59.02 -28.28,0 -51.2,-26.42 -51.2,-59.02 0,-32.59 22.92,-59.01 51.2,-59.01z"/>
    <path class="fil2" style="mask:url(#id6)" d="M314.42 184.73c-27.24,0 -49.33,26.43 -49.33,59.02 0,32.59 22.09,59.02 49.33,59.02 27.24,0 49.33,-26.43 49.33,-59.02 0,-32.59 -22.09,-59.02 -49.33,-59.02z"/>
   </g>
   <path id="cejas" class="fil8" d="M192.86 189.92c-13.09,-4.07 -25.13,-5.66 -36.12,-4.77 -15.42,1.13 -29.05,5.63 -40.88,13.5 6.35,-11.65 18.78,-19.58 37.31,-23.82 38.27,-6.52 59.04,-2.81 62.31,11.12 -1.22,6.59 -8.76,7.91 -22.62,3.97zm116.63 -0.8c12.83,-4.06 24.63,-5.65 35.4,-4.76 15.11,1.13 28.47,5.62 40.07,13.49 -6.22,-11.64 -18.41,-19.58 -36.57,-23.81 -37.51,-6.52 -57.86,-2.82 -61.07,11.11 1.19,6.59 8.58,7.91 22.17,3.97z"/>
   <g id="gafas">
    <g id="marco">
     <path class="fil9" d="M251.17 257.9c16.57,0 30,11.87 30,26.5 0,2.49 -0.39,4.9 -1.11,7.18 -1.72,-13.18 -14.28,-23.41 -29.53,-23.41 -14.11,0 -25.93,8.77 -28.96,20.53 -0.26,-1.4 -0.4,-2.83 -0.4,-4.3 0,-14.63 13.43,-26.5 30,-26.5z"/>
     <path class="fil10" d="M252 255c16.57,0 30,11.87 30,26.5 0,2.49 -0.39,4.9 -1.12,7.18 -1.71,-13.18 -14.27,-23.42 -29.52,-23.42 -14.11,0 -25.93,8.78 -28.96,20.54 -0.26,-1.4 -0.4,-2.84 -0.4,-4.3 0,-14.63 13.43,-26.5 30,-26.5z"/>
     <circle class="fil11" cx="343" cy="264" r="73"/>
     <circle class="fil11" cx="159" cy="265" r="73"/>
     <rect class="fil11" x="77" y="261" width="13" height="9" rx="4.5" ry="4.5"/>
     <rect class="fil11" x="412.44" y="260.21" width="13" height="9" rx="4.5" ry="4.5"/>
    </g>
    <path class="fil12 str0" d="M159.5 197c37.28,0 67.5,30.22 67.5,67.5 0,37.28 -30.22,67.5 -67.5,67.5 -37.28,0 -67.5,-30.22 -67.5,-67.5 0,-37.28 30.22,-67.5 67.5,-67.5zm183 0c37.28,0 67.5,30.22 67.5,67.5 0,37.28 -30.22,67.5 -67.5,67.5 -37.28,0 -67.5,-30.22 -67.5,-67.5 0,-37.28 30.22,-67.5 67.5,-67.5z"/>
    <path class="fil13 str1" style="mask:url(#id8)" d="M157.6 331.97c20.63,-9.75 39.3,-18.78 55.91,-26.98 8.47,-11.27 13.49,-25.3 13.49,-40.49 0,-37.28 -30.22,-67.5 -67.5,-67.5 -20.26,0 -38.43,8.93 -50.8,23.06l2.7 91.8c11.83,12.01 28.13,19.61 46.2,20.11zm117.97 -58.71c24.41,-13.1 35.9,-20.36 33.12,-20.27 -9.84,-5.06 -19.36,-9.84 -28.56,-14.34 -3.3,7.96 -5.13,16.69 -5.13,25.85 0,2.97 0.19,5.89 0.57,8.76z"/>
    <g id="aliens-vaquita">
     <g id="alien">
      <path class="fil14 str2" d="M181.62 262.74c-0.72,-1.79 -1.08,-2.69 -1.08,-2.69 -3.34,1.86 -11.05,3.41 -23.11,4.66 1.88,0.01 3.62,0.42 5.22,1.22 -1.02,1.99 -2.27,3.09 -3.75,3.31 3.95,0.3 9.56,-1.52 16.84,-5.47 3.92,-0.69 5.88,-1.03 5.88,-1.03z"/>
      <path class="fil14 str2" d="M176.83 253.91c-16.02,-5.35 -4.77,-11.44 -17.34,-8.7 -3.2,0.7 -7.9,0.79 -8.8,1.11 -5.52,1.48 -8.64,0.12 -9.37,-4.08 20.41,6.98 10.93,-10.18 34.19,2.66 1.52,-4.24 0.51,-7 -3.02,-8.28 -2.84,0.6 -15.93,-0.39 -15.87,-4.69 -4.59,-6.05 -4.12,-6.71 1.39,-1.99 11.08,9.73 19.21,-3.27 22.78,14.57 6.29,2.94 9.18,6.6 8.65,10.98 3.73,1.77 4.76,3.99 3.11,6.67 -1.72,3.91 -1.54,5.51 0.53,4.8 2.14,-3.21 5.3,-2.16 9.48,3.16 3.43,4.94 2.58,9.17 -2.53,12.68 -7.63,3.14 -11.92,1.13 -12.87,-6.04 0.57,-3.34 -0.24,-5.34 -2.43,-6 -7.09,4.82 -9.15,3.1 -16.49,5.53 -3.27,1.89 -13.35,7.69 -16.34,6.55 1.73,-0.54 2.89,-1.72 3.47,-3.54 -0.82,-0.58 -2.59,-0.87 -5.32,-0.87 1.6,-2 39.21,-1.37 26.78,-24.52z"/>
      <path class="fil15 str2" d="M198.02 272.02c0.49,1.83 1.75,3.78 2.82,4.35 1.07,0.58 1.55,-0.44 1.07,-2.27 -0.48,-1.83 -1.75,-3.77 -2.82,-4.35 -1.07,-0.57 -1.55,0.44 -1.07,2.27z"/>
      <path class="fil15 str2" d="M193.29 274.53c0.48,1.83 1.74,3.78 2.82,4.35 1.07,0.58 1.55,-0.44 1.07,-2.27 -0.49,-1.82 -1.75,-3.77 -2.82,-4.35 -1.07,-0.57 -1.55,0.44 -1.07,2.27z"/>
     </g>
     <g id="vaquita">
      <path class="fil16 str3" d="M309.14 260.55c-0.02,-9.9 -0.03,-14.85 -0.03,-14.85 -4.89,-0.42 -7.83,0.3 -8.83,2.17 -6.42,-0.84 -7.48,-0.27 -3.17,1.71 0.04,1.23 0.06,1.84 0.06,1.84 -5.85,2.02 -5.74,3.4 0.32,4.17 0.13,1.3 0.2,1.96 0.2,1.96 -2.91,1.8 -3.6,3.04 -2.08,3.7 1.42,0.6 3.03,-0.18 4.86,-2.35 3.2,1.78 6.09,2.33 8.67,1.65z"/>
      <g id="cuernos">
       <path class="fil17" d="M367.7 215.4c-1.61,1.28 -2.07,2.66 -1.39,4.13 4.15,-1.46 7.42,-1.93 9.81,-1.42 -0.56,-2.49 -3.37,-3.4 -8.42,-2.71z"/>
       <path class="fil18" d="M364.68 233.53c-1.13,-1.64 -1.12,-3.16 0.04,-4.57 3.54,2.3 6.55,3.4 9.05,3.31 -1.39,2.49 -4.42,2.92 -9.09,1.26z"/>
      </g>
      <path class="fil19 str3" d="M346.78 211.46c-9.59,7.6 -14.39,11.4 -14.39,11.4 -4.78,1.51 -8.65,3.7 -11.62,6.58 -2.92,-4.19 -7.29,-5.69 -13.11,-4.5 -5.62,3.16 -4.64,4.21 1.66,3.83 2.18,-0.52 3.27,-0.77 3.27,-0.77 0.38,2.07 1.22,4.18 2.51,6.34 -1.31,1.61 -3.53,1.06 -6.63,-1.66 -3.63,-0.79 -7.03,-0.24 -10.22,1.65 -1.88,4.14 -0.69,5.04 3.38,2.94 1.26,-1.16 1.88,-1.75 1.88,-1.75 1.85,3.55 3.99,5.8 6.4,6.74 -1.65,7.34 -1.63,14.49 0.05,21.43 -12.2,3.31 -15.82,6.24 -12.77,8.15 1.36,0.62 2.21,-0.02 4.45,-1.32 3.32,-2.86 6.02,-3.45 8.08,-1.76 -2.56,7.05 -0.42,11.44 6.4,13.15 6.21,-0.26 7.08,-1.58 2.59,-3.96 -2.56,-0.03 -4.2,-0.88 -4.91,-2.55 0.45,-2.05 1.46,-2.81 3.03,-2.29 9.3,6.63 19.2,9.77 29.72,9.42 7.2,4.15 13.76,3.17 19.68,-2.94 4,-0.07 5.65,-1.13 4.94,-3.19 -1.33,-1.84 -0.41,-3.56 2.76,-5.14 -8.54,-3.05 -12.41,-0.91 -11.63,6.42 -1.85,5.16 -6.14,6.19 -12.89,3.08 1.44,-13.64 2.13,-29.47 2.08,-47.5 3.07,-1.44 6.04,-1.52 8.91,-0.26 -0.36,4.37 1.07,6.75 4.28,7.13 -0.28,-5.29 -0.13,-9.12 0.43,-11.49 0.74,-1.37 1.1,-2.06 1.1,-2.06 3.1,2.24 4.45,1.97 4.05,-0.79 3.65,-0.7 3.82,-1.66 0.5,-2.88 1.05,-2.64 -0.39,-3.33 -4.33,-2.07 -0.67,-3.69 1.49,-6.96 6.49,-9.81 -2.89,-3.5 -6.03,-2.62 -9.41,2.64 -8.53,0.02 -12.79,0.04 -12.79,0.04 1.68,-2.24 0.36,-2.99 -3.94,-2.25z"/>
      <g id="patas">
       <path class="fil20" d="M309.77 228.68c-3.51,1.71 -5.77,1.59 -6.78,-0.38 -0.96,-2.02 0.81,-3.27 5.27,-3.48 -1.09,2.02 -0.6,3.4 1.51,3.86z"/>
       <path class="fil20" d="M297.3 239.11c-2.13,-1.04 -1.9,-2.69 0.95,-4.78 0.36,1.48 1.72,2.48 3.9,2.46 -1.58,2.96 -3.35,3.71 -4.85,2.32z"/>
       <path class="fil20" d="M296.75 271.54c-1.59,-1.14 -0.87,-2.41 2.14,-3.83 0.39,1.3 1.5,2.23 2.98,2.62 -1.85,2 -3.67,2.35 -5.12,1.21z"/>
       <path class="fil20" d="M321.54 280.8c-0.81,1.51 -2.93,2.09 -5.42,1.11 1.35,-0.99 2.15,-2.6 1.92,-3.99 3.18,0.18 4.5,1.21 3.5,2.88z"/>
      </g>
      <g id="manchas">
       <path class="fil21" d="M350.15 272.77c1.09,-8.53 -1.46,-11.28 -7.65,-8.27 -4.18,-2.73 -6.21,-0.51 -6.1,6.66 0.84,4.39 4.22,8.18 10.15,11.37 1.91,-1.18 3.6,-9.76 3.6,-9.76z"/>
       <path class="fil21" d="M312.26 257.61c9.41,2.06 13.81,-1.72 13.2,-11.35 -4.61,-3.72 -7.88,-2.41 -9.82,3.94 -3.94,1.29 -5.07,3.76 -3.38,7.41z"/>
       <path class="fil21" d="M314.54 233.35c-0.99,-1.85 -1.64,-3.63 -1.95,-5.35 5.21,-0.29 5.86,1.49 1.95,5.35z"/>
       <path class="fil21" d="M351.49 233.26c-0.18,13.18 -0.27,19.76 -0.27,19.76 -11.69,-4.27 -11.6,-10.86 0.27,-19.76z"/>
       <path class="fil21" d="M308.77 275.26c0.29,1.73 1.02,3.1 2.17,4.12 2.92,0.94 4.3,0.16 4.16,-2.37 -0.6,-0.42 -1.04,-0.96 -1.3,-1.61 -2.06,-2.2 -3.74,-2.24 -5.03,-0.14z"/>
       <path class="fil21" d="M341.27 223.3c-1.74,-0.69 -3.88,-0.88 -6.42,-0.58 -4.5,1.02 -6.43,2.01 -5.77,2.98 0.73,0.28 0.84,0.64 0.33,1.09 -2.99,1.46 -3.78,2.56 -2.37,3.3 1.26,1.89 4.9,1.74 10.94,-0.47 5.66,-2.5 6.76,-4.6 3.29,-6.32z"/>
      </g>
      <path class="fil22 str3" d="M366.04 279.8c-0.56,-1.81 -1.9,-2.29 -4.02,-1.43 -1.76,-7.99 1.4,-10.67 9.49,-8.03 2.72,-0.11 4.08,-0.17 4.08,-0.17 0,0 -1.24,0.8 -3.74,2.38 1.18,5.4 -0.75,7.82 -5.81,7.25z"/>
      <path class="fil23" d="M346.91 211.16c4.67,-0.45 5.75,0.72 3.23,3.51 2.28,4.1 2.15,7.02 -1.83,11.3 1.37,3 0.29,3.65 -3.23,1.96 -8.63,0.98 -12.99,-2.33 -13.08,-9.92 1.87,-6.98 6.84,-9.26 14.91,-6.85z"/>
      <path class="fil24" d="M346.9 225.98c0.02,0.64 -0.53,1.18 -1.24,1.2 -0.7,0.02 -1.29,-0.48 -1.31,-1.13 -0.02,-0.64 0.54,-1.18 1.24,-1.2 0.71,-0.02 1.29,0.48 1.31,1.13z"/>
      <path class="fil24" d="M348.64 214.08c0.02,0.64 -0.53,1.18 -1.24,1.2 -0.7,0.02 -1.29,-0.49 -1.31,-1.13 -0.02,-0.64 0.54,-1.18 1.24,-1.2 0.71,-0.02 1.3,0.48 1.31,1.13z"/>
      <g id="orejas">
       <path class="fil23 str3" d="M372.92 211.03c-3.12,-2.01 -6.26,-1.13 -9.41,2.64 3.47,-5.27 6.61,-6.15 9.41,-2.64z"/>
       <path class="fil23 str3" d="M364.68 240.13c-1.65,-1.11 -3.08,-3.48 -4.28,-7.13 -0.45,4.26 0.98,6.63 4.28,7.13z"/>
      </g>
      <g id="cara_2">
       <path class="fil25 str3" d="M338.96 213.84c-3.64,1.82 -4.58,4.74 -2.81,8.77"/>
       <path class="fil25 str3" d="M357.8 216.51c1.29,1.3 1.11,2.27 -0.55,2.91"/>
       <path class="fil25 str3" d="M356.64 223.13c0.91,1.53 0.47,2.44 -1.3,2.72"/>
      </g>
     </g>
    </g>
   </g>
  </g>
  <g id="pelo_x0020_2">
   <path class="fil26" d="M0.5 237.78c0,-15.81 0,-23.72 0,-23.72 17.38,-7.69 27.92,-21.85 31.62,-42.49 8.1,-25.06 31.48,-40.54 70.15,-46.44 38.82,-63.87 87.57,-86.93 146.25,-69.17 61.78,-18.4 115.14,5.64 160.07,72.14 43.97,4.81 68.01,24.9 72.14,60.27 9.89,-2.1 16.81,-0.45 20.75,4.94 -1.32,27.67 -1.98,41.51 -1.98,41.51 -8.79,-0.81 -17.03,-4.1 -24.7,-9.89 -37.7,-18.15 -63.39,-30.99 -77.08,-38.53 -36.18,-19.64 -67.14,-49.94 -92.88,-90.91 -15.57,-15.54 -35,-25.42 -58.3,-29.64 -27.66,4.1 -49.07,14.64 -64.23,31.61 -47.58,79.19 -93.7,120.69 -138.34,124.51 -28.98,10.54 -43.47,15.81 -43.47,15.81z"/>
   <g>
    <path class="fil1" d="M336.93 131.92c-11.09,-15 -24.79,-31.77 -41.09,-50.29 25.69,17.7 44.3,36.1 55.81,55.2 12.19,11.66 21.39,22.7 27.6,33.12 -14.04,-8.72 -28.15,-21.4 -42.32,-38.03z"/>
    <path class="fil4 str4" d="M295.84 81.63c38.58,35.54 66.39,64.98 83.41,88.32"/>
    <path class="fil4 str4" d="M378.58 162.17c-17.52,-9.03 -44.14,-37.37 -79.85,-85.02"/>
   </g>
  </g>
 </g>
 <g id="Capa_x0020_2" visibility="hidden">
  <metadata id="CorelCorpID_1Corel-Layer"/>
 </g>
</svg>
